# xmcd CD database file
#
# Track frame offsets:
#	150
#	26527
#	40273
#	59291
#	78980
#	104034
#	122189
#	147574
#	165604
#	187221
#	204719
#	223679
#	243298
#
# Disc length: 3379 seconds
#
# Revision: 0
# Processed by: cddbd v1.5.2PL0 Copyright (c) Steve Scherf et al.
# Submitted via: CDex 1.51
#
DISCID=c60d310d
DTITLE=Cécile Verny Quartet - The Bitter And The Sweet
DYEAR=1900
DGENRE=Jazz
TTITLE0=The Bitter And The Sweet
TTITLE1=I Am Broken
TTITLE2=Motherland
TTITLE3=Face à Face
TTITLE4=Soft Snow
TTITLE5=Memory Hither Come
TTITLE6=Two Ghosts
TTITLE7=Quand Il Pleut
TTITLE8=Nomades
TTITLE9=Mad Song
TTITLE10=I WIll Give My Love An Apple
TTITLE11=You Here And Now
TTITLE12=Cradle Song II
EXTD=
EXTT0=
EXTT1=
EXTT2=
EXTT3=
EXTT4=
EXTT5=
EXTT6=
EXTT7=
EXTT8=
EXTT9=
EXTT10=
EXTT11=
EXTT12=
PLAYORDER=
